HIERARCHY
ROOT Hips
{
  OFFSET 0 0 0
  CHANNELS 6 Xposition Yposition Zposition Zrotation Yrotation Xrotation
  JOINT LeftThigh
  {
    OFFSET 8.409438 0 -5.917753
    CHANNELS 3 Zrotation Yrotation Xrotation
    JOINT LeftLeg
    {
      OFFSET 0 0 -42.358652
      CHANNELS 3 Zrotation Yrotation Xrotation
      JOINT LeftFoot
      {
        OFFSET 0 0 -39.357303
        CHANNELS 3 Zrotation Yrotation Xrotation
      }
    }
  }
  JOINT RightThigh
  {
    OFFSET -8.409438 0 -5.917753
    CHANNELS 3 Zrotation Yrotation Xrotation
    JOINT RightLeg
    {
      OFFSET 0 0 -42.358652
      CHANNELS 3 Zrotation Yrotation Xrotation
      JOINT RightFoot
      {
        OFFSET 0 0 -39.357303
        CHANNELS 3 Zrotation Yrotation Xrotation
      }
    }
  }
  JOINT SpineLow
  {
    OFFSET 0 0 4.719101
    CHANNELS 3 Zrotation Yrotation Xrotation
    JOINT SpineMid
    {
      OFFSET 0 0 12.899191
      CHANNELS 3 Zrotation Yrotation Xrotation
      JOINT Chest
      {
        OFFSET 0 0 12.899191
        CHANNELS 3 Zrotation Yrotation Xrotation
        JOINT LeftShoulder
        {
          OFFSET 7.550562 1.41573 9.438202
          CHANNELS 3 Zrotation Yrotation Xrotation
          JOINT LeftArm
          {
            OFFSET 9.155056 0 4.247191
            CHANNELS 3 Zrotation Yrotation Xrotation
            JOINT LeftForearm
            {
              OFFSET 0 0 25.771955
              CHANNELS 3 Zrotation Yrotation Xrotation
              JOINT LeftHand
              {
                OFFSET 0 0 25.197169
                CHANNELS 3 Zrotation Yrotation Xrotation
              }
            }
          }
        }
        JOINT RightShoulder
        {
          OFFSET -7.550562 1.41573 9.438202
          CHANNELS 3 Zrotation Yrotation Xrotation
          JOINT RightArm
          {
            OFFSET -9.155056 0 4.247191
            CHANNELS 3 Zrotation Yrotation Xrotation
            JOINT RightForearm
            {
              OFFSET 0 0 -25.771955
              CHANNELS 3 Zrotation Yrotation Xrotation
              JOINT RightHand
              {
                OFFSET 0 0 -25.197169
                CHANNELS 3 Zrotation Yrotation Xrotation
              }
            }
          }
        }
        JOINT Neck
        {
          OFFSET 0 0 15.101124
          CHANNELS 3 Zrotation Yrotation Xrotation
          JOINT Head
          {
            OFFSET 0 0 11.325843
            CHANNELS 3 Zrotation Yrotation Xrotation
            End Site
            {
              OFFSET 0 0 14.157303
            }
          }
        }
      }
    }
  }
}
MOTION
Frames: 14
Frame Time: 0.0
0.0  101.685394  0.0  2.160091  34.643302  -97.61302  -5.61512  -17.870381  -2.36157  -7.409597  16.368567  26.194131  -1.20389  3.566483  1.810548  -25.674348  17.101545  2.324044  -7.606526  4.37901  18.228884  -6.264915  2.644107  -1.673125  -1.231065  1.060889  2.536443  -3.251577  3.024392  6.881429  -3.251577  3.024392  6.881429  -21.87248  23.625675  5.584427  89.789205  57.108762  162.463569  -46.224453  -25.669792  65.992448  65.992121  -5.618557  -8.158597  20.804673  -17.186151  10.735186  98.588971  42.489555  68.789436  14.030073  21.281977  -26.018546  112.722186  15.032283  6.506919  -9.368738  -4.212951  1.698751  -7.011723  -3.186656  1.20913  
0.0  101.685394  0.0  2.214439  35.133824  -97.69139  -5.874162  -17.913449  -2.453009  -7.76358  16.647222  26.185742  -1.109165  3.587899  1.842131  -25.991886  17.197317  2.266006  -7.606125  4.369777  18.437766  -6.41185  2.75845  -1.6803  -1.15074  1.077471  2.592835  -3.027774  3.063851  7.038744  -3.027774  3.063851  7.038744  -21.90027  23.382968  5.299349  89.023197  56.493415  162.984862  -46.106692  -25.782398  66.200516  65.969176  -5.176866  -8.641556  21.366598  -17.184354  10.686241  98.0623  43.492871  68.553259  14.556322  19.539056  -24.661691  112.72337  14.706886  6.267017  -9.847755  -4.369928  1.517022  -7.371423  -3.302916  1.066997  
0.0  101.685394  0.0  2.259513  35.573233  -97.732868  -6.070327  -17.967638  -2.591134  -7.981829  16.898671  26.319908  -1.085582  3.585038  1.820263  -25.887573  17.154094  2.353557  -7.911977  4.501581  18.619419  -6.58402  2.830536  -1.704716  -1.061985  1.07463  2.653629  -2.78274  3.04918  7.209303  -2.78274  3.04918  7.209303  -22.091928  23.257156  4.931645  87.904575  55.77981  163.016206  -46.145053  -25.83422  66.423625  65.884034  -4.74323  -8.882361  21.457078  -17.060429  10.577428  96.4499  45.371068  67.553095  15.135318  18.19585  -24.364277  112.791885  14.800191  5.566117  -10.250602  -4.501187  1.26988  -7.674665  -3.398325  0.876565  
0.0  101.685394  0.0  2.239717  35.930735  -97.808621  -6.167244  -18.076157  -2.754897  -8.354752  17.1887  26.365466  -0.993353  3.596717  1.85281  -25.807174  17.039153  2.395212  -8.434183  4.736984  18.806386  -6.614724  2.884724  -1.738523  -1.029556  1.081707  2.703015  -2.691055  3.066923  7.345648  -2.691056  3.066923  7.345648  -21.968385  23.124121  4.692765  86.393636  55.008033  162.458547  -46.469748  -25.729391  66.714762  65.897161  -4.297593  -9.047632  21.576025  -17.004839  10.431319  94.107162  47.693582  65.920749  16.011379  17.311132  -24.772106  113.048514  15.118279  4.832813  -10.617585  -4.689749  0.983891  -7.951197  -3.535668  0.656089  
0.0  101.685394  0.0  2.254878  36.368362  -97.772872  -6.27895  -18.15836  -3.039401  -8.551091  17.417817  26.578268  -1.037441  3.601841  1.830748  -25.719106  16.874144  2.357996  -8.837339  5.004136  19.06301  -6.616367  2.94447  -1.763767  -1.006691  1.080877  2.740127  -2.626928  3.063553  7.448255  -2.626928  3.063553  7.448254  -22.075852  23.025933  4.449577  84.781376  54.233248  161.661962  -46.87133  -25.565819  66.954199  65.931507  -3.891032  -9.276323  21.250678  -16.827113  10.12679  91.759982  49.750582  64.032768  17.270826  16.987476  -25.409488  113.441345  15.400388  4.38329  -10.796845  -4.863622  0.764411  -8.086682  -3.662571  0.487021  
0.0  101.685394  0.0  2.199906  36.752648  -97.756029  -6.24342  -18.365345  -3.365806  -8.867021  17.725497  26.752555  -0.975396  3.617049  1.858768  -25.587783  16.708233  2.317788  -9.424442  5.244273  19.294667  -6.519653  3.019022  -1.7687  -1.015025  1.070802  2.743701  -2.650634  3.037133  7.45797  -2.650634  3.037132  7.457969  -22.091413  22.999721  4.37607  83.469646  53.570167  161.026736  -47.132121  -25.40976  67.014122  66.544711  -3.549152  -9.832982  21.004716  -16.745154  10.069244  89.502769  51.43345  62.222454  18.962258  17.615075  -25.761528  113.700213  15.696231  4.151391  -10.925388  -4.992218  0.663558  -8.183427  -3.757443  0.408045  
0.0  101.685394  0.0  2.152285  37.222032  -97.689568  -6.318242  -18.531511  -3.735237  -9.059325  17.977193  27.006836  -1.049667  3.620802  1.820611  -25.72872  16.596459  2.147156  -9.514645  5.307542  19.628214  -6.609644  3.115106  -1.778573  -1.074683  1.062405  2.720677  -2.815583  3.019962  7.392499  -2.815583  3.019962  7.392499  -22.060492  22.973141  4.361615  82.679084  53.028916  160.758676  -47.280919  -25.245152  66.938202  68.264333  -3.521261  -11.352678  20.708693  -16.61706  10.183581  88.614112  52.057838  61.378848  19.985458  18.858238  -25.904109  113.658339  16.084699  4.104847  -10.886383  -5.065129  0.690701  -8.153735  -3.812577  0.427398  
0.0  101.685394  0.0  2.102477  37.806525  -97.612258  -6.602441  -18.629798  -4.207168  -9.287662  18.228326  27.276533  -0.995588  3.650101  1.836961  -26.04338  16.533388  1.965383  -9.423427  5.316087  19.978132  -6.852856  3.187411  -1.807361  -1.170499  1.063203  2.700008  -3.078175  3.031855  7.33145  -3.078175  3.031855  7.33145  -22.070696  22.825704  4.370399  82.238349  52.656345  160.703707  -47.130625  -25.590632  66.709037  69.211569  -3.540071  -13.359291  20.612748  -16.596684  10.234978  89.327492  51.37813  61.785216  19.508395  20.154205  -25.94623  113.210893  16.55801  4.12767  -10.816532  -5.143267  0.758259  -8.100561  -3.872301  0.477226  
0.0  101.685394  0.0  1.951138  38.196511  -97.637134  -6.684668  -18.814302  -4.503932  -9.455172  18.403293  27.564067  -1.042581  3.666815  1.776351  -26.305424  16.38228  1.812413  -9.269532  5.279986  20.313481  -6.975052  3.293991  -1.81475  -1.254112  1.055034  2.691013  -3.30786  3.01834  7.303264  -3.30786  3.01834  7.303264  -22.210888  22.691694  4.284691  82.323032  52.330072  160.776463  -46.949941  -26.175106  66.637757  68.658032  -3.382097  -15.105932  20.475201  -16.582072  10.222502  90.632522  50.361372  62.509019  18.439644  21.196156  -26.157896  112.659721  16.975136  4.496191  -10.669828  -5.187648  0.836025  -7.989799  -3.906737  0.535977  
0.0  101.685394  0.0  1.836169  38.565865  -97.627672  -6.885272  -18.937582  -4.82115  -9.694208  18.611161  27.760198  -1.029738  3.701159  1.726207  -26.550361  16.277046  1.628816  -9.074082  5.201227  20.657302  -7.034019  3.443118  -1.805475  -1.344575  1.058321  2.696254  -3.554349  3.037509  7.313179  -3.554349  3.037509  7.313179  -22.435809  22.480808  4.187989  82.380803  52.127188  160.790993  -47.386335  -26.324137  66.737845  63.237631  -10.378714  -3.2358  20.436139  -16.625829  10.158429  91.71788  49.540381  63.045268  17.229399  21.873874  -26.580975  112.263903  17.35993  4.816679  -10.511743  -5.218766  0.883886  -7.8708  -3.930649  0.572657  
0.0  101.685394  0.0  1.653963  38.613936  -97.712641  -6.881067  -19.155157  -4.960362  -9.674347  18.719258  28.05997  -1.069149  3.742692  1.633414  -26.540384  16.157206  1.493039  -8.969685  5.063837  20.971884  -7.077136  3.541507  -1.787244  -1.414821  1.048103  2.706668  -3.746823  3.017921  7.33883  -3.746823  3.017922  7.33883  -22.603913  22.340051  4.128933  82.870791  52.091368  161.01215  -48.274703  -25.698795  67.102593  61.958911  -9.669126  -3.070811  20.299046  -16.63135  10.056799  92.534496  48.987971  63.225177  16.233423  22.250369  -27.204129  112.15364  17.761807  4.666095  -10.259283  -5.223488  0.900981  -7.681424  -3.934049  0.587547  
0.0  101.685394  0.0  1.486239  38.444633  -97.809306  -6.900661  -19.313208  -5.029985  -9.696292  18.830178  28.237896  -0.978012  3.800574  1.581143  -26.438814  16.057488  1.365743  -8.694035  4.875681  21.285999  -7.077156  3.670125  -1.781484  -1.466746  1.045269  2.736321  -3.887549  3.017614  7.417602  -3.887549  3.017614  7.417602  -22.825638  22.007651  4.020645  83.655303  52.256776  161.518393  -49.422477  -24.466839  67.491432  61.255333  -8.964821  -2.469078  20.444101  -16.773782  9.885338  92.840936  48.937465  63.174729  15.703276  22.431433  -27.791434  112.138588  18.187903  4.097929  -9.994769  -5.244677  0.850393  -7.483535  -3.948661  0.551525  
0.0  101.685394  0.0  1.294542  37.994144  -97.935667  -6.83101  -19.445229  -4.986477  -9.364337  18.706019  28.597901  -1.00107  3.882393  1.455086  -26.209212  15.942021  1.233235  -8.535035  4.693734  21.527476  -7.025726  3.742078  -1.768875  -1.503813  1.022484  2.758446  -3.990239  2.960882  7.477565  -3.990239  2.960882  7.477565  -22.867838  21.869378  3.991703  84.619056  52.629921  162.102691  -50.285302  -23.016473  67.818722  61.242234  -8.318149  -1.708849  20.390123  -16.813985  9.71488  93.557772  48.88963  63.131321  15.319962  22.320022  -28.221945  112.144032  18.639851  3.345565  -9.655924  -5.192512  0.795489  -7.230218  -3.908103  0.514108  
0.0  101.685394  0.0  1.105883  37.335268  -98.065527  -6.841034  -19.398825  -4.93418  -8.958712  18.437341  28.972107  -0.958885  3.980708  1.335843  -25.912246  15.850556  1.067532  -8.27336  4.477804  21.758891  -6.887587  3.788893  -1.740506  -1.544128  0.993367  2.772079  -4.102916  2.886798  7.514581  -4.102915  2.886798  7.514581  -22.77375  21.740577  3.936742  85.052344  53.054493  162.474715  -50.983807  -21.97428  67.685392  61.553862  -7.823723  -0.932591  20.483777  -16.823939  9.61667  94.153258  48.955047  62.984187  15.22128  22.193108  -28.536834  112.047023  18.986859  2.566492  -9.231021  -5.083569  0.754261  -6.912441  -3.825099  0.488482  
